<?xml version="1.0" encoding="utf-8"?>
<svg xmlns="http://www.w3.org/2000/svg"
	xmlns:xlink="http://www.w3.org/1999/xlink"
	width="8px" height="18px" viewBox="0 0 8 18">
<path fillRule="evenodd" d="M 7.99 5.57C 7.99 5.57 5.28 5.57 5.28 5.57 5.28 5.57 5.28 3.79 5.28 3.79 5.28 3.12 5.72 2.96 6.03 2.96 6.34 2.96 7.95 2.96 7.95 2.96 7.95 2.96 7.95 0.03 7.95 0.03 7.95 0.03 5.31 0.02 5.31 0.02 2.38 0.02 1.71 2.21 1.71 3.61 1.71 3.61 1.71 5.57 1.71 5.57 1.71 5.57 0.02 5.57 0.02 5.57 0.02 5.57 0.02 8.6 0.02 8.6 0.02 8.6 1.71 8.6 1.71 8.6 1.71 12.49 1.71 17.17 1.71 17.17 1.71 17.17 5.28 17.17 5.28 17.17 5.28 17.17 5.28 12.44 5.28 8.6 5.28 8.6 7.68 8.6 7.68 8.6 7.68 8.6 7.99 5.57 7.99 5.57Z" fill="rgb(255,255,255)"/></svg>