<?xml version="1.0" encoding="utf-8"?>
<svg xmlns="http://www.w3.org/2000/svg"
	xmlns:xlink="http://www.w3.org/1999/xlink"
	width="18px" height="16px" viewBox="0 0 18 16">
<path fillRule="evenodd" d="M 17.48 8C 17.48 8 14.81 8 14.81 8 14.81 8 14.81 10.67 14.81 10.67 14.81 10.88 14.65 11.04 14.44 11.04 14.44 11.04 13.68 11.04 13.68 11.04 13.48 11.04 13.31 10.88 13.31 10.67 13.31 10.67 13.31 8 13.31 8 13.31 8 10.64 8 10.64 8 10.44 8 10.27 7.84 10.27 7.64 10.27 7.64 10.27 6.88 10.27 6.88 10.27 6.67 10.44 6.5 10.64 6.5 10.64 6.5 13.31 6.5 13.31 6.5 13.31 6.5 13.31 3.84 13.31 3.84 13.31 3.63 13.48 3.47 13.68 3.47 13.68 3.47 14.44 3.47 14.44 3.47 14.65 3.47 14.81 3.63 14.81 3.84 14.81 3.84 14.81 6.5 14.81 6.5 14.81 6.5 17.48 6.5 17.48 6.5 17.68 6.5 17.85 6.67 17.85 6.88 17.85 6.88 17.85 7.64 17.85 7.64 17.85 7.84 17.68 8 17.48 8ZM 9.48 1.48C 9.42 1.52 9.34 1.55 9.26 1.55 9.26 1.55 8.89 1.55 8.89 1.55 9.37 2.13 9.66 2.96 9.66 3.89 9.66 4.92 9.14 5.89 8.19 6.63 7.46 7.2 7.43 7.36 7.43 7.69 7.44 7.86 7.95 8.45 8.51 8.84 9.82 9.77 10.31 10.68 10.31 12.2 10.31 13.78 9.11 15.15 7.25 15.69 6.65 15.86 6 15.95 5.33 15.95 4.57 15.95 3.85 15.86 3.17 15.69 1.86 15.36 0.9 14.73 0.45 13.93 0.25 13.58 0.15 13.21 0.15 12.82 0.15 12.42 0.25 12.02 0.43 11.63 1.15 10.1 3.04 9.07 5.13 9.07 5.15 9.07 5.17 9.07 5.19 9.07 5.02 8.77 4.94 8.46 4.94 8.14 4.94 7.97 4.96 7.81 5 7.64 2.81 7.59 1.17 5.98 1.17 3.86 1.17 2.37 2.36 0.91 4.07 0.32 4.59 0.14 5.11 0.05 5.62 0.05 5.62 0.05 10.31 0.05 10.31 0.05 10.47 0.05 10.62 0.15 10.67 0.31 10.72 0.46 10.66 0.63 10.53 0.72 10.53 0.72 9.48 1.48 9.48 1.48ZM 2.58 12.32C 2.58 13.52 3.78 14.46 5.32 14.46 7.34 14.46 8.36 13.76 8.36 12.39 8.36 12.26 8.35 12.12 8.32 11.99 8.18 11.45 7.69 11.12 6.95 10.62 6.85 10.55 6.74 10.48 6.63 10.4 6.31 10.3 5.97 10.25 5.62 10.25 5.62 10.25 5.58 10.24 5.58 10.24 3.99 10.24 2.58 11.21 2.58 12.32ZM 7.24 4.03C 7.05 2.64 6.06 1.49 5.02 1.45 5.02 1.45 4.98 1.45 4.98 1.45 4.61 1.45 4.29 1.6 4.04 1.89 3.65 2.33 3.49 3.03 3.59 3.8 3.77 5.19 4.79 6.4 5.8 6.42 5.8 6.42 5.82 6.42 5.82 6.42 5.82 6.42 5.82 6.42 5.82 6.42 6.2 6.42 6.52 6.27 6.77 5.99 7.17 5.54 7.34 4.81 7.24 4.03Z" fill="rgb(255,255,255)"/></svg>