<?xml version="1.0" encoding="utf-8"?>
<svg xmlns="http://www.w3.org/2000/svg"
	xmlns:xlink="http://www.w3.org/1999/xlink"
	width="21px" height="23px" viewBox="0 0 21 23">
<path fillRule="evenodd" d="M 19 9.62C 19 9.62 3.56 0.7 3.56 0.7 1.99-0.2 0.39 0.77 0.39 2.53 0.39 2.53 0.39 20.37 0.39 20.37 0.39 21.66 1.18 22.56 2.3 22.56 2.71 22.56 3.14 22.44 3.56 22.2 3.56 22.2 19.01 13.28 19.01 13.28 19.77 12.84 20.2 12.17 20.2 11.45 20.2 10.72 19.77 10.06 19 9.62 19 9.62 19 9.62 19 9.62ZM 18.09 11.69C 18.09 11.69 2.65 20.61 2.65 20.61 2.45 20.72 2.33 20.73 2.3 20.73 2.3 20.73 2.3 20.74 2.3 20.74 2.27 20.72 2.22 20.61 2.22 20.37 2.22 20.37 2.22 2.53 2.22 2.53 2.22 2.29 2.27 2.18 2.3 2.17 2.33 2.17 2.45 2.18 2.65 2.29 2.65 2.29 18.09 11.21 18.09 11.21 18.3 11.32 18.36 11.43 18.38 11.44 18.36 11.47 18.3 11.57 18.09 11.69 18.09 11.69 18.09 11.69 18.09 11.69Z" fill="rgb(255,255,255)"/></svg>