<?xml version="1.0" encoding="utf-8"?>
<svg xmlns="http://www.w3.org/2000/svg"
	xmlns:xlink="http://www.w3.org/1999/xlink"
	width="76px" height="75px" viewBox="0 0 76 75">
<g><path fillRule="evenodd" d="M 75.76 37.51C 75.76 58.22 58.97 75.01 38.26 75.01 17.55 75.01 0.76 58.22 0.76 37.51 0.76 16.8 17.55 0.01 38.26 0.01 58.97 0.01 75.76 16.8 75.76 37.51Z" fill="rgb(17,17,20)"/><path fillRule="evenodd" d="M 51.32 29.94C 51.32 29.94 46.45 29.94 46.45 29.94 46.45 29.94 45.93 28.33 45.93 28.33 45.73 27.78 45.22 27.42 44.64 27.4 44.64 27.4 33.62 27.4 33.62 27.4 33.04 27.42 32.53 27.78 32.34 28.33 32.34 28.33 31.81 29.94 31.81 29.94 31.81 29.94 26.94 29.94 26.94 29.94 26.31 29.94 25.79 30.46 25.79 31.09 25.79 31.09 25.79 33.61 25.79 33.61 25.79 33.61 25.79 45.28 25.79 45.28 25.79 45.28 25.79 47.78 25.79 47.78 25.79 48.41 26.31 48.93 26.94 48.93 26.94 48.93 26.94 48.93 26.94 48.93 26.94 48.93 51.32 48.93 51.32 48.93 51.95 48.93 52.47 48.41 52.47 47.78 52.47 47.78 52.47 31.09 52.47 31.09 52.47 30.46 51.95 29.94 51.32 29.94ZM 33.5 28.72C 33.5 28.72 33.5 28.72 33.5 28.72 33.51 28.71 33.53 28.68 33.56 28.66 33.58 28.64 33.62 28.63 33.62 28.63 33.62 28.63 44.63 28.63 44.63 28.63 44.64 28.63 44.68 28.64 44.71 28.66 44.74 28.68 44.76 28.71 44.76 28.71 44.76 28.71 44.76 28.71 44.76 28.71 44.76 28.71 45.16 29.94 45.16 29.94 45.16 29.94 33.1 29.94 33.1 29.94 33.1 29.94 33.5 28.72 33.5 28.72ZM 27.02 47.71C 27.02 47.71 27.02 45.38 27.02 45.38 27.02 45.38 34.47 45.38 34.47 45.38 34.47 45.38 34.57 45.47 34.57 45.47 34.65 45.53 34.73 45.59 34.83 45.66 35.33 46.03 35.89 46.33 36.47 46.55 36.47 46.55 36.53 46.57 36.53 46.57 36.61 46.6 36.68 46.63 36.78 46.66 36.78 46.66 36.86 46.69 36.86 46.69 36.93 46.71 37 46.73 37.06 46.75 37.06 46.75 37.19 46.79 37.19 46.79 37.26 46.81 37.33 46.82 37.39 46.84 37.39 46.84 37.53 46.87 37.53 46.87 37.6 46.88 37.66 46.9 37.73 46.91 37.77 46.92 37.81 46.93 37.88 46.94 37.88 46.94 37.96 46.95 37.96 46.95 37.96 46.95 38.07 46.97 38.07 46.97 38.07 46.97 38.17 46.98 38.17 46.98 38.17 46.98 38.24 46.99 38.24 46.99 38.29 47 38.36 47 38.42 47.01 38.42 47.01 38.54 47.02 38.54 47.02 38.54 47.02 38.6 47.03 38.6 47.03 38.6 47.03 38.67 47.03 38.67 47.03 38.67 47.03 38.78 47.04 38.78 47.04 38.78 47.04 38.9 47.04 38.9 47.04 38.9 47.04 39.01 47.04 39.01 47.04 39.01 47.04 39.13 47.05 39.13 47.05 39.13 47.05 39.29 47.04 39.29 47.04 39.29 47.04 39.36 47.04 39.36 47.04 39.36 47.04 39.49 47.04 39.49 47.04 39.49 47.04 39.59 47.03 39.59 47.03 39.59 47.03 39.66 47.03 39.66 47.03 39.66 47.03 39.72 47.02 39.72 47.02 39.72 47.02 39.84 47.01 39.84 47.01 39.91 47 39.97 47 40.03 46.99 40.03 46.99 40.09 46.98 40.09 46.98 40.09 46.98 40.19 46.97 40.19 46.97 40.19 46.97 40.38 46.94 40.38 46.94 40.38 46.94 40.43 46.93 40.43 46.93 40.43 46.93 40.54 46.91 40.54 46.91 40.6 46.9 40.66 46.88 40.74 46.87 40.74 46.87 40.9 46.83 40.9 46.83 40.9 46.83 41.09 46.78 41.09 46.78 41.09 46.78 41.2 46.75 41.2 46.75 41.2 46.75 41.25 46.74 41.25 46.74 41.25 46.74 41.4 46.69 41.4 46.69 41.4 46.69 41.5 46.66 41.5 46.66 41.5 46.66 41.56 46.63 41.56 46.63 41.62 46.61 41.68 46.59 41.78 46.55 42.51 46.27 43.19 45.88 43.79 45.38 43.79 45.38 51.24 45.38 51.24 45.38 51.24 45.38 51.24 47.71 51.24 47.71 51.24 47.71 27.02 47.71 27.02 47.71ZM 27.02 31.17C 27.02 31.17 31.7 31.17 31.7 31.17 31.7 31.17 46.56 31.17 46.56 31.17 46.56 31.17 51.24 31.17 51.24 31.17 51.24 31.17 51.24 33.51 51.24 33.51 51.24 33.51 43.22 33.51 43.22 33.51 42.96 33.33 42.69 33.17 42.41 33.04 42.25 32.96 42.09 32.88 41.89 32.8 41.73 32.74 41.57 32.68 41.38 32.61 41.21 32.56 41.05 32.52 40.88 32.48 40.88 32.48 40.79 32.46 40.79 32.46 40.64 32.42 40.48 32.39 40.28 32.36 40.11 32.33 39.94 32.31 39.78 32.3 39.78 32.3 39.65 32.29 39.65 32.29 39.49 32.28 39.33 32.27 39.16 32.27 39.16 32.27 39.1 32.27 39.1 32.27 38.93 32.27 38.77 32.28 38.59 32.29 38.59 32.29 38.49 32.3 38.49 32.3 38.32 32.31 38.15 32.33 37.94 32.36 37.78 32.39 37.62 32.42 37.45 32.46 37.45 32.46 37.38 32.48 37.38 32.48 37.21 32.52 37.05 32.56 36.85 32.63 36.69 32.68 36.53 32.74 36.34 32.82 35.89 33 35.45 33.23 35.04 33.51 35.04 33.51 27.02 33.51 27.02 33.51 27.02 33.51 27.02 31.17 27.02 31.17ZM 43.48 44.02C 43.42 44.08 43.36 44.14 43.29 44.19 43.29 44.19 43.25 44.23 43.25 44.23 42.52 44.89 41.64 45.37 40.67 45.62 40.58 45.65 40.48 45.67 40.37 45.69 40.27 45.71 40.18 45.73 40.06 45.75 39.97 45.76 39.87 45.77 39.76 45.79 39.66 45.8 39.56 45.8 39.44 45.81 39.34 45.82 39.24 45.82 39.13 45.82 39.03 45.82 38.92 45.82 38.79 45.81 38.7 45.8 38.6 45.8 38.48 45.78 38.39 45.77 38.29 45.76 38.18 45.75 38.08 45.73 37.99 45.71 37.88 45.69 37.78 45.67 37.69 45.65 37.59 45.62 36.65 45.38 35.76 44.9 35.03 44.25 35.03 44.25 35.01 44.23 35.01 44.23 35.01 44.23 34.98 44.21 34.98 44.21 34.98 44.21 34.95 44.18 34.95 44.18 34.89 44.13 34.84 44.07 34.76 44 34.69 43.93 34.63 43.86 34.57 43.8 34.03 43.2 33.62 42.52 33.34 41.76 33.31 41.67 33.28 41.59 33.25 41.48 33.22 41.39 33.19 41.3 33.16 41.18 33.14 41.09 33.12 41 33.09 40.87 33.07 40.78 33.06 40.69 33.03 40.56 33.02 40.47 33.01 40.38 33 40.29 33 40.29 33 40.23 33 40.23 32.99 40.14 32.98 40.06 32.98 39.98 32.97 39.87 32.97 39.77 32.97 39.66 32.97 39.54 32.97 39.43 32.98 39.31 32.98 39.26 32.99 39.2 33 39.09 33 39.09 33.01 38.97 33.01 38.97 33.02 38.91 33.02 38.84 33.03 38.78 33.03 38.78 33.05 38.65 33.05 38.65 33.07 38.58 33.08 38.5 33.09 38.44 33.09 38.44 33.11 38.36 33.11 38.36 33.17 38.09 33.24 37.82 33.34 37.54 33.38 37.45 33.41 37.37 33.44 37.29 33.44 37.29 33.46 37.24 33.46 37.24 33.5 37.16 33.53 37.08 33.59 36.96 33.76 36.63 33.95 36.31 34.16 36.01 34.16 36.01 34.21 35.95 34.21 35.95 34.26 35.89 34.3 35.83 34.36 35.77 34.36 35.77 34.41 35.7 34.41 35.7 34.46 35.64 34.51 35.58 34.56 35.53 34.56 35.53 34.61 35.47 34.61 35.47 34.78 35.29 34.96 35.12 35.15 34.96 35.15 34.96 35.23 34.89 35.23 34.89 35.28 34.85 35.34 34.8 35.39 34.76 35.43 34.74 35.46 34.71 35.49 34.69 35.54 34.65 35.59 34.61 35.64 34.58 35.74 34.52 35.83 34.46 35.92 34.4 35.95 34.38 35.99 34.36 36.07 34.31 36.14 34.27 36.21 34.23 36.28 34.2 36.34 34.17 36.39 34.14 36.43 34.12 36.54 34.07 36.64 34.02 36.74 33.98 36.74 33.98 36.91 33.91 36.91 33.91 36.91 33.91 37.12 33.83 37.12 33.83 37.12 33.83 37.17 33.81 37.17 33.81 37.22 33.8 37.25 33.79 37.29 33.78 37.4 33.74 37.51 33.71 37.62 33.68 37.62 33.68 37.79 33.64 37.79 33.64 37.88 33.62 37.97 33.61 38.05 33.59 38.05 33.59 38.19 33.56 38.19 33.56 38.32 33.55 38.44 33.53 38.57 33.52 38.57 33.52 38.71 33.51 38.71 33.51 38.86 33.5 38.99 33.49 39.13 33.49 39.27 33.49 39.41 33.5 39.58 33.51 39.58 33.51 39.69 33.52 39.69 33.52 39.82 33.53 39.94 33.55 40.06 33.56 40.06 33.56 40.12 33.57 40.12 33.57 40.12 33.57 40.21 33.59 40.21 33.59 40.3 33.61 40.38 33.62 40.47 33.64 40.47 33.64 40.64 33.68 40.64 33.68 40.75 33.71 40.86 33.74 40.97 33.78 41.02 33.79 41.08 33.81 41.14 33.83 41.21 33.86 41.28 33.88 41.35 33.91 41.41 33.93 41.47 33.96 41.52 33.98 41.62 34.02 41.72 34.07 41.84 34.12 41.84 34.12 41.99 34.2 41.99 34.2 42.05 34.24 42.12 34.27 42.19 34.31 42.25 34.35 42.31 34.38 42.37 34.42 42.45 34.47 42.53 34.52 42.61 34.58 42.67 34.61 42.72 34.65 42.77 34.69 42.77 34.69 42.86 34.76 42.86 34.76 42.92 34.8 42.98 34.85 43.03 34.89 43.03 34.89 43.1 34.94 43.1 34.94 43.1 34.94 43.1 34.95 43.1 34.95 43.3 35.12 43.49 35.3 43.66 35.49 43.66 35.49 43.73 35.56 43.73 35.56 43.77 35.61 43.81 35.66 43.86 35.71 43.86 35.71 43.9 35.76 43.9 35.76 43.96 35.83 44.01 35.89 44.09 36 44.31 36.31 44.51 36.63 44.69 37 44.73 37.08 44.76 37.16 44.8 37.24 44.8 37.24 44.82 37.29 44.82 37.29 44.85 37.37 44.89 37.45 44.92 37.55 45.02 37.81 45.1 38.08 45.15 38.35 45.15 38.35 45.17 38.43 45.17 38.43 45.18 38.5 45.2 38.57 45.21 38.65 45.21 38.65 45.23 38.79 45.23 38.79 45.24 38.84 45.25 38.9 45.25 38.97 45.26 39.03 45.27 39.09 45.27 39.15 45.28 39.21 45.28 39.26 45.28 39.31 45.29 39.43 45.29 39.54 45.29 39.66 45.29 39.76 45.29 39.87 45.28 39.98 45.28 40.05 45.28 40.12 45.27 40.2 45.27 40.2 45.26 40.3 45.26 40.3 45.25 40.38 45.24 40.46 45.23 40.54 45.23 40.54 45.22 40.61 45.22 40.61 45.21 40.69 45.19 40.78 45.17 40.86 45.17 40.86 45.16 40.92 45.16 40.92 45.15 41 45.13 41.09 45.1 41.21 45.07 41.3 45.05 41.39 45.01 41.51 44.98 41.59 44.95 41.68 44.91 41.79 44.64 42.53 44.23 43.2 43.69 43.8 43.63 43.86 43.57 43.93 43.48 44.02ZM 45.17 43.92C 45.23 43.83 45.29 43.74 45.37 43.61 45.43 43.52 45.49 43.43 45.54 43.34 45.54 43.34 45.57 43.29 45.57 43.29 45.62 43.2 45.67 43.11 45.71 43.02 45.71 43.02 45.74 42.96 45.74 42.96 45.79 42.87 45.83 42.78 45.88 42.66 45.88 42.66 45.9 42.61 45.9 42.61 45.94 42.53 45.98 42.44 46.01 42.36 46.01 42.36 46.05 42.26 46.05 42.26 46.08 42.19 46.1 42.11 46.13 42.03 46.13 42.03 46.15 41.97 46.15 41.97 46.15 41.97 46.17 41.91 46.17 41.91 46.19 41.83 46.22 41.75 46.25 41.65 46.25 41.65 46.28 41.55 46.28 41.55 46.3 41.46 46.32 41.38 46.34 41.3 46.34 41.27 46.35 41.23 46.36 41.18 46.38 41.11 46.39 41.04 46.4 40.98 46.4 40.98 46.41 40.93 46.41 40.93 46.41 40.9 46.42 40.86 46.43 40.81 46.45 40.72 46.46 40.62 46.47 40.52 46.47 40.52 46.48 40.43 46.48 40.43 46.49 40.32 46.5 40.22 46.51 40.11 46.51 40.11 46.51 40.04 46.51 40.04 46.52 39.92 46.52 39.79 46.52 39.66 46.52 39.51 46.52 39.38 46.51 39.24 46.51 39.24 46.5 39.14 46.5 39.14 46.5 39.14 46.5 39.09 46.5 39.09 46.49 39 46.48 38.92 46.47 38.83 46.47 38.78 46.46 38.73 46.45 38.69 46.45 38.6 46.43 38.51 46.41 38.38 46.41 38.38 46.39 38.28 46.39 38.28 46.37 38.19 46.36 38.11 46.34 38.02 46.34 38.02 46.31 37.88 46.31 37.88 46.28 37.79 46.26 37.69 46.22 37.57 46.22 37.57 46.2 37.5 46.2 37.5 46.12 37.24 46.03 36.99 45.92 36.75 45.92 36.72 45.91 36.71 45.9 36.69 45.86 36.59 45.81 36.48 45.76 36.38 45.76 36.38 45.71 36.3 45.71 36.3 45.67 36.21 45.62 36.12 45.56 36.02 45.56 36.02 45.52 35.95 45.52 35.95 45.47 35.85 45.41 35.76 45.35 35.67 45.35 35.67 45.32 35.61 45.32 35.61 45.26 35.53 45.2 35.45 45.15 35.37 45.15 35.37 45.15 35.37 45.15 35.37 45.15 35.37 45.09 35.28 45.09 35.28 45.08 35.27 45.07 35.26 45.06 35.25 45.06 35.25 45.04 35.22 45.04 35.22 44.92 35.06 44.78 34.89 44.64 34.73 44.64 34.73 51.24 34.73 51.24 34.73 51.24 34.73 51.24 44.16 51.24 44.16 51.24 44.16 44.99 44.16 44.99 44.16 45.04 44.09 45.1 44.01 45.17 43.92ZM 27.02 34.73C 27.02 34.73 33.62 34.73 33.62 34.73 33.37 35.01 33.14 35.31 32.92 35.66 32.85 35.76 32.79 35.85 32.74 35.96 32.74 35.96 32.7 36.02 32.7 36.02 32.65 36.11 32.59 36.21 32.54 36.31 32.54 36.31 32.51 36.37 32.51 36.37 32.45 36.48 32.4 36.6 32.34 36.74 32.23 37.01 32.14 37.26 32.06 37.5 32.06 37.5 32.04 37.58 32.04 37.58 32.01 37.68 31.98 37.79 31.95 37.89 31.95 37.89 31.93 38.01 31.93 38.01 31.91 38.1 31.89 38.19 31.87 38.29 31.87 38.29 31.86 38.34 31.86 38.34 31.86 38.34 31.85 38.42 31.85 38.42 31.83 38.51 31.82 38.6 31.8 38.74 31.8 38.74 31.79 38.83 31.79 38.83 31.78 38.93 31.77 39.03 31.76 39.15 31.76 39.15 31.75 39.24 31.75 39.24 31.75 39.38 31.74 39.51 31.74 39.66 31.74 39.79 31.74 39.92 31.76 40.1 31.76 40.21 31.77 40.32 31.78 40.43 31.78 40.43 31.79 40.53 31.79 40.53 31.8 40.62 31.82 40.71 31.83 40.81 31.83 40.81 31.85 40.92 31.85 40.92 31.86 41 31.88 41.09 31.9 41.19 31.9 41.19 31.91 41.23 31.91 41.23 31.91 41.23 31.91 41.23 31.91 41.23 31.91 41.23 31.93 41.29 31.93 41.29 31.93 41.29 31.94 41.36 31.94 41.36 31.95 41.42 31.97 41.49 31.99 41.55 31.99 41.55 32.02 41.66 32.02 41.66 32.04 41.74 32.07 41.83 32.11 41.96 32.11 41.96 32.13 42.01 32.13 42.01 32.15 42.1 32.18 42.18 32.22 42.26 32.22 42.26 32.25 42.36 32.25 42.36 32.28 42.44 32.32 42.53 32.37 42.63 32.37 42.63 32.4 42.7 32.4 42.7 32.43 42.78 32.47 42.86 32.53 42.98 32.53 42.98 32.55 43.02 32.55 43.02 32.55 43.02 32.55 43.02 32.55 43.02 32.6 43.11 32.64 43.2 32.69 43.28 32.69 43.28 32.72 43.34 32.72 43.34 32.78 43.43 32.83 43.52 32.88 43.6 32.88 43.6 32.92 43.65 32.92 43.65 32.97 43.74 33.03 43.83 33.11 43.94 33.17 44.02 33.21 44.08 33.27 44.16 33.27 44.16 27.02 44.16 27.02 44.16 27.02 44.16 27.02 34.73 27.02 34.73Z" fill="rgb(249,91,87)"/></g></svg>