<?xml version="1.0" encoding="utf-8"?>
<svg xmlns="http://www.w3.org/2000/svg"
	xmlns:xlink="http://www.w3.org/1999/xlink"
	width="76px" height="75px" viewBox="0 0 76 75">
<g><path fillRule="evenodd" d="M 75.76 37.51C 75.76 58.22 58.97 75 38.26 75 17.55 75 0.76 58.22 0.76 37.51 0.76 16.8 17.55 0.01 38.26 0.01 58.97 0.01 75.76 16.8 75.76 37.51Z" fill="rgb(17,17,20)"/><path fillRule="evenodd" d="M 51.02 33.1C 51.02 33.1 44.46 33.1 44.46 33.1 44.36 31.39 43.87 29.85 43.1 28.65 42.29 27.4 41.11 26.52 39.73 26.42 39.73 26.42 39.73 26.4 39.73 26.4 39.73 26.4 39.49 26.4 39.49 26.4 39.49 26.4 39.48 26.4 39.48 26.4 39.48 26.4 39.48 26.4 39.48 26.4 39.48 26.4 33.04 26.4 33.04 26.4 32.88 25.51 32.1 24.84 31.16 24.83 31.16 24.83 29.41 24.83 29.41 24.83 28.35 24.84 27.5 25.69 27.49 26.75 27.49 26.75 27.49 29.97 27.49 29.97 27.49 29.97 24.73 29.97 24.73 29.97 24.38 29.97 24.09 30.25 24.09 30.6 24.09 30.95 24.38 31.24 24.73 31.24 24.73 31.24 27.49 31.24 27.49 31.24 27.49 31.24 27.49 36.56 27.49 36.56 27.49 36.56 24.73 36.56 24.73 36.56 24.38 36.56 24.09 36.84 24.09 37.2 24.09 37.2 24.09 37.2 24.09 37.2 24.09 37.55 24.38 37.84 24.73 37.84 24.73 37.84 27.49 37.84 27.49 37.84 27.49 37.84 27.49 40.39 27.49 40.39 27.5 41.44 28.35 42.3 29.41 42.3 29.41 42.3 31.16 42.3 31.16 42.3 31.97 42.3 32.66 41.79 32.94 41.08 32.94 41.08 39.48 41.08 39.48 41.08 39.48 41.08 39.48 41.08 39.48 41.08 39.49 41.08 39.49 41.08 39.49 41.08 39.49 41.08 39.73 41.08 39.73 41.08 39.73 41.08 39.73 41.06 39.73 41.06 41.11 40.96 42.29 40.08 43.1 38.82 43.87 37.64 44.36 36.09 44.46 34.38 44.46 34.38 51.02 34.38 51.02 34.38 51.37 34.38 51.66 34.67 51.66 35.02 51.66 35.02 51.66 45.97 51.66 45.97 51.66 46.32 51.37 46.61 51.02 46.61 51.02 46.61 37.09 46.61 37.09 46.61 36.03 46.61 35.18 47.46 35.18 48.52 35.18 48.52 35.18 50.91 35.18 50.91 35.18 50.91 36.45 50.91 36.45 50.91 36.45 50.91 36.45 48.52 36.45 48.52 36.45 48.17 36.74 47.88 37.09 47.88 37.09 47.88 51.02 47.88 51.02 47.88 52.08 47.88 52.93 47.03 52.94 45.97 52.94 45.97 52.94 35.02 52.94 35.02 52.93 33.96 52.08 33.1 51.02 33.1ZM 31.8 40.39C 31.8 40.73 31.51 41.02 31.16 41.02 31.16 41.02 29.41 41.02 29.41 41.02 29.06 41.02 28.77 40.73 28.77 40.39 28.77 40.39 28.77 26.75 28.77 26.75 28.77 26.4 29.06 26.11 29.41 26.11 29.41 26.11 31.16 26.11 31.16 26.11 31.51 26.11 31.8 26.4 31.8 26.75 31.8 26.75 31.8 40.39 31.8 40.39ZM 33.1 39.8C 33.1 39.8 33.1 27.68 33.1 27.68 33.1 27.68 36.65 27.68 36.65 27.68 36.65 27.68 38.46 27.68 38.46 27.68 38.46 27.68 38.46 27.92 38.46 27.92 38.46 27.92 38.46 39.56 38.46 39.56 38.46 39.56 38.46 39.8 38.46 39.8 38.46 39.8 36.65 39.8 36.65 39.8 36.65 39.8 33.1 39.8 33.1 39.8ZM 42.03 38.13C 41.38 39.12 40.57 39.69 39.73 39.78 39.73 39.78 39.73 27.7 39.73 27.7 40.57 27.79 41.38 28.35 42.03 29.35 42.74 30.44 43.21 32 43.2 33.74 43.21 35.48 42.74 37.04 42.03 38.13Z" fill="rgb(249,91,87)"/></g></svg>