<?xml version="1.0" encoding="utf-8"?>
<svg xmlns="http://www.w3.org/2000/svg"
	xmlns:xlink="http://www.w3.org/1999/xlink"
	width="29px" height="27px" viewBox="0 0 29 27">
<path fillRule="evenodd" d="M 27.02 9.1C 27.02 9.1 20.46 9.1 20.46 9.1 20.36 7.39 19.87 5.85 19.1 4.65 18.29 3.4 17.11 2.52 15.74 2.42 15.74 2.42 15.74 2.4 15.74 2.4 15.74 2.4 15.49 2.4 15.49 2.4 15.49 2.4 15.48 2.4 15.48 2.4 15.48 2.4 15.48 2.4 15.48 2.4 15.48 2.4 9.04 2.4 9.04 2.4 8.88 1.51 8.1 0.84 7.16 0.83 7.16 0.83 5.41 0.83 5.41 0.83 4.35 0.84 3.5 1.69 3.49 2.75 3.49 2.75 3.49 5.97 3.49 5.97 3.49 5.97 0.73 5.97 0.73 5.97 0.38 5.97 0.09 6.25 0.09 6.6 0.09 6.95 0.38 7.24 0.73 7.24 0.73 7.24 3.49 7.24 3.49 7.24 3.49 7.24 3.49 12.56 3.49 12.56 3.49 12.56 0.73 12.56 0.73 12.56 0.38 12.56 0.09 12.84 0.09 13.2 0.09 13.2 0.09 13.2 0.09 13.2 0.09 13.55 0.38 13.84 0.73 13.84 0.73 13.84 3.49 13.84 3.49 13.84 3.49 13.84 3.49 16.39 3.49 16.39 3.5 17.44 4.35 18.3 5.41 18.3 5.41 18.3 7.16 18.3 7.16 18.3 7.97 18.3 8.66 17.79 8.94 17.08 8.94 17.08 15.48 17.08 15.48 17.08 15.48 17.08 15.48 17.08 15.48 17.08 15.49 17.08 15.49 17.08 15.49 17.08 15.49 17.08 15.74 17.08 15.74 17.08 15.74 17.08 15.74 17.06 15.74 17.06 17.11 16.96 18.29 16.08 19.1 14.82 19.87 13.64 20.36 12.09 20.46 10.38 20.46 10.38 27.02 10.38 27.02 10.38 27.37 10.38 27.66 10.67 27.66 11.02 27.66 11.02 27.66 21.97 27.66 21.97 27.66 22.32 27.37 22.61 27.02 22.61 27.02 22.61 13.09 22.61 13.09 22.61 12.03 22.61 11.18 23.46 11.18 24.52 11.18 24.52 11.18 26.91 11.18 26.91 11.18 26.91 12.45 26.91 12.45 26.91 12.45 26.91 12.45 24.52 12.45 24.52 12.45 24.17 12.74 23.88 13.09 23.88 13.09 23.88 27.02 23.88 27.02 23.88 28.08 23.88 28.93 23.03 28.94 21.97 28.94 21.97 28.94 11.02 28.94 11.02 28.93 9.96 28.08 9.1 27.02 9.1ZM 7.8 16.39C 7.8 16.73 7.51 17.02 7.16 17.02 7.16 17.02 5.41 17.02 5.41 17.02 5.06 17.02 4.77 16.73 4.77 16.39 4.77 16.39 4.77 2.75 4.77 2.75 4.77 2.4 5.06 2.11 5.41 2.11 5.41 2.11 7.16 2.11 7.16 2.11 7.51 2.11 7.8 2.4 7.8 2.75 7.8 2.75 7.8 16.39 7.8 16.39ZM 9.1 15.8C 9.1 15.8 9.1 3.68 9.1 3.68 9.1 3.68 12.65 3.68 12.65 3.68 12.65 3.68 14.46 3.68 14.46 3.68 14.46 3.68 14.46 3.92 14.46 3.92 14.46 3.92 14.46 15.56 14.46 15.56 14.46 15.56 14.46 15.8 14.46 15.8 14.46 15.8 12.65 15.8 12.65 15.8 12.65 15.8 9.1 15.8 9.1 15.8ZM 18.03 14.13C 17.38 15.12 16.57 15.69 15.74 15.78 15.74 15.78 15.74 3.7 15.74 3.7 16.57 3.79 17.38 4.35 18.03 5.35 18.74 6.44 19.21 8 19.2 9.74 19.21 11.48 18.74 13.04 18.03 14.13Z" fill="rgb(249,91,87)"/></svg>