<?xml version="1.0" encoding="utf-8"?>
<svg xmlns="http://www.w3.org/2000/svg"
	xmlns:xlink="http://www.w3.org/1999/xlink"
	width="76px" height="75px" viewBox="0 0 76 75">
<g><path fillRule="evenodd" d="M 75.7 37.51C 75.7 58.22 58.91 75.01 38.2 75.01 17.49 75.01 0.7 58.22 0.7 37.51 0.7 16.8 17.49 0.01 38.2 0.01 58.91 0.01 75.7 16.8 75.7 37.51Z" fill="rgb(17,17,20)"/><path fillRule="evenodd" d="M 47.66 29.75C 47.66 29.75 49.8 31.9 49.8 31.9 49.93 32.03 50 32.19 50 32.37 50 32.54 49.93 32.71 49.8 32.84 49.8 32.84 49.8 32.84 49.8 32.84 49.8 32.84 36.12 46.53 36.12 46.53 36.12 46.53 37.02 47.43 37.02 47.43 37.02 47.43 50.71 33.74 50.71 33.74 51.09 33.36 51.27 32.86 51.27 32.37 51.27 31.87 51.09 31.37 50.71 31 50.71 31 45.5 25.79 45.5 25.79 45.12 25.41 44.62 25.23 44.13 25.23 43.63 25.23 43.14 25.41 42.76 25.79 42.76 25.79 29.07 39.48 29.07 39.48 29.07 39.48 29.97 40.38 29.97 40.38 29.97 40.38 43.66 26.7 43.66 26.7 43.79 26.57 43.96 26.5 44.13 26.5 44.3 26.5 44.47 26.57 44.6 26.7 44.6 26.7 46.75 28.85 46.75 28.85 46.75 28.85 33.77 41.83 33.77 41.83 33.77 41.83 34.67 42.73 34.67 42.73 34.67 42.73 47.66 29.75 47.66 29.75ZM 28.27 42.99C 28.01 42.73 27.7 42.52 27.28 42.51 26.96 42.5 26.62 42.69 26.45 42.94 26.27 43.18 26.2 43.46 26.18 43.75 26.18 43.75 25.73 48.91 25.73 48.91 25.73 48.91 25.73 48.91 25.73 48.91 25.73 48.96 25.73 49.02 25.73 49.08 25.72 49.54 25.9 49.98 26.21 50.29 26.52 50.6 26.96 50.77 27.42 50.77 27.42 50.77 27.42 50.77 27.42 50.77 27.47 50.77 27.52 50.77 27.57 50.77 27.57 50.77 32.75 50.32 32.75 50.32 33.04 50.3 33.32 50.23 33.56 50.05 33.81 49.87 34 49.54 33.99 49.22 33.98 48.8 33.78 48.49 33.51 48.23 33.51 48.23 28.27 42.99 28.27 42.99ZM 27.48 49.5C 27.46 49.5 27.44 49.5 27.42 49.5 27.14 49.48 27.02 49.36 27 49.08 27 49.07 27 49.06 27 49.02 27 49.02 27 49.02 27 49.02 27 49.02 27.44 43.96 27.44 43.96 27.44 43.96 32.54 49.06 32.54 49.06 32.54 49.06 27.48 49.5 27.48 49.5Z" fill="rgb(249,91,87)"/></g></svg>