<?xml version="1.0" encoding="utf-8"?>
<svg xmlns="http://www.w3.org/2000/svg"
	xmlns:xlink="http://www.w3.org/1999/xlink"
	width="76px" height="75px" viewBox="0 0 76 75">
<g><path fillRule="evenodd" d="M 75.7 37.51C 75.7 58.22 58.91 75 38.2 75 17.49 75 0.7 58.22 0.7 37.51 0.7 16.8 17.49 0.01 38.2 0.01 58.91 0.01 75.7 16.8 75.7 37.51Z" fill="rgb(17,17,20)"/><path fillRule="evenodd" d="M 38.43 44.76C 38.43 44.76 38.43 43.19 38.43 43.19 38.43 43.19 37.16 43.19 37.16 43.19 37.16 43.19 37.16 44.79 37.16 44.79 35.73 45.08 34.6 46.19 34.29 47.61 34.29 47.61 25.85 47.61 25.85 47.61 25.85 47.61 25.85 48.89 25.85 48.89 25.85 48.89 34.23 48.89 34.23 48.89 34.46 50.71 36.01 52.12 37.9 52.12 39.79 52.12 41.34 50.71 41.57 48.89 41.57 48.89 50.15 48.89 50.15 48.89 50.15 48.89 50.15 47.61 50.15 47.61 50.15 47.61 41.51 47.61 41.51 47.61 41.18 46.13 39.96 44.98 38.43 44.76ZM 37.9 50.85C 36.56 50.85 35.47 49.76 35.47 48.42 35.47 47.08 36.56 46 37.9 45.99 39.24 46 40.32 47.08 40.33 48.42 40.32 49.76 39.24 50.85 37.9 50.85ZM 48.24 26.88C 48.24 26.88 27.76 26.88 27.76 26.88 26.64 26.88 25.74 27.78 25.74 28.9 25.74 28.9 25.74 40.3 25.74 40.3 25.74 41.41 26.64 42.32 27.76 42.32 27.76 42.32 48.24 42.32 48.24 42.32 49.35 42.32 50.26 41.41 50.26 40.3 50.26 40.3 50.26 28.9 50.26 28.9 50.26 27.78 49.35 26.88 48.24 26.88ZM 48.99 40.3C 48.99 40.7 48.65 41.05 48.24 41.05 48.24 41.05 27.76 41.05 27.76 41.05 27.35 41.05 27.01 40.7 27.01 40.3 27.01 40.3 27.01 28.9 27.01 28.9 27.01 28.49 27.35 28.15 27.76 28.15 27.76 28.15 48.24 28.15 48.24 28.15 48.65 28.15 48.99 28.49 48.99 28.9 48.99 28.9 48.99 40.3 48.99 40.3 48.99 40.3 48.99 40.3 48.99 40.3Z" fill="rgb(249,91,87)"/></g></svg>