<?xml version="1.0" encoding="utf-8"?>
<svg xmlns="http://www.w3.org/2000/svg"
	xmlns:xlink="http://www.w3.org/1999/xlink"
	width="18px" height="15px" viewBox="0 0 18 15">
<path fillRule="evenodd" d="M 17.51 1.92C 16.87 2.2 16.18 2.39 15.45 2.48 16.19 2.04 16.76 1.33 17.03 0.5 16.34 0.91 15.57 1.21 14.75 1.37 14.1 0.67 13.16 0.23 12.13 0.23 10.15 0.23 8.54 1.84 8.54 3.82 8.54 4.1 8.57 4.38 8.63 4.64 5.65 4.49 3.01 3.06 1.23 0.89 0.93 1.42 0.75 2.04 0.75 2.7 0.75 3.94 1.38 5.04 2.35 5.68 1.76 5.66 1.2 5.5 0.72 5.23 0.72 5.25 0.72 5.26 0.72 5.28 0.72 7.02 1.96 8.47 3.6 8.8 3.3 8.88 2.98 8.93 2.65 8.93 2.42 8.93 2.2 8.9 1.98 8.86 2.43 10.29 3.76 11.32 5.33 11.35 4.1 12.32 2.55 12.89 0.87 12.89 0.58 12.89 0.3 12.87 0.02 12.84 1.61 13.86 3.49 14.45 5.52 14.45 12.12 14.45 15.73 8.98 15.73 4.24 15.73 4.08 15.73 3.93 15.72 3.78 16.42 3.27 17.03 2.64 17.51 1.92Z" fill="rgb(255,255,255)"/></svg>