<svg xmlns="http://www.w3.org/2000/svg" width="18" height="16" viewBox="0 0 18 16"><path d="M17.48 8h-2.67v2.67c0 .21-.16.37-.37.37h-.76c-.2 0-.37-.16-.37-.37V8h-2.67c-.2 0-.37-.16-.37-.36v-.76c0-.21.17-.38.37-.38h2.67V3.84c0-.21.17-.37.37-.37h.76c.21 0 .37.16.37.37V6.5h2.67c.2 0 .37.17.37.38v.76c0 .2-.17.36-.37.36zm-8-6.52c-.06.04-.14.07-.22.07h-.37c.48.58.77 1.41.77 2.34 0 1.03-.52 2-1.47 2.74-.73.57-.76.73-.76 1.06.01.17.52.76 1.08 1.15 1.31.93 1.8 1.84 1.8 3.36 0 1.58-1.2 2.95-3.06 3.49-.6.17-1.25.26-1.92.26-.76 0-1.48-.09-2.16-.26-1.31-.33-2.27-.96-2.72-1.76-.2-.35-.3-.72-.3-1.11 0-.4.1-.8.28-1.19.72-1.53 2.61-2.56 4.7-2.56h.06c-.17-.3-.25-.61-.25-.93 0-.17.02-.33.06-.5-2.19-.05-3.83-1.66-3.83-3.78 0-1.49 1.19-2.95 2.9-3.54C4.59.14 5.11.05 5.62.05h4.69c.16 0 .31.1.36.26.05.15-.01.32-.14.41l-1.05.76zm-6.9 10.84c0 1.2 1.2 2.14 2.74 2.14 2.02 0 3.04-.7 3.04-2.07 0-.13-.01-.27-.04-.4-.14-.54-.63-.87-1.37-1.37-.1-.07-.21-.14-.32-.22-.32-.1-.66-.15-1.01-.15l-.04-.01c-1.59 0-3 .97-3 2.08zm4.66-8.29c-.19-1.39-1.18-2.54-2.22-2.58h-.04c-.37 0-.69.15-.94.44-.39.44-.55 1.14-.45 1.91.18 1.39 1.2 2.6 2.21 2.62h.02c.38 0 .7-.15.95-.43.4-.45.57-1.18.47-1.96z" fill="#FFF"/></svg>