<svg xmlns="http://www.w3.org/2000/svg" width="76" height="75" viewBox="0 0 76 75"><path d="M75.76 37.51C75.76 58.22 58.97 75 38.26 75S.76 58.22.76 37.51 17.55.01 38.26.01s37.5 16.79 37.5 37.5z" fill="#111114"/><path d="M51.02 33.1h-6.56c-.1-1.71-.59-3.25-1.36-4.45-.81-1.25-1.99-2.13-3.37-2.23v-.02h-.24-.01-6.44c-.16-.89-.94-1.56-1.88-1.57h-1.75c-1.06.01-1.91.86-1.92 1.92v3.22h-2.76c-.35 0-.64.28-.64.63s.29.64.64.64h2.76v5.32h-2.76c-.35 0-.64.28-.64.64 0 .35.29.64.64.64h2.76v2.55c.01 1.05.86 1.91 1.92 1.91h1.75c.81 0 1.5-.51 1.78-1.22h6.79v-.02c1.38-.1 2.56-.98 3.37-2.24.77-1.18 1.26-2.73 1.36-4.44h6.56c.35 0 .64.29.64.64v10.95c0 .35-.29.64-.64.64H37.09c-1.06 0-1.91.85-1.91 1.91v2.39h1.27v-2.39c0-.35.29-.64.64-.64h13.93c1.06 0 1.91-.85 1.92-1.91V35.02c-.01-1.06-.86-1.92-1.92-1.92zM31.8 40.39c0 .34-.29.63-.64.63h-1.75c-.35 0-.64-.29-.64-.63V26.75c0-.35.29-.64.64-.64h1.75c.35 0 .64.29.64.64v13.64zm1.3-.59V27.68H38.46V39.8h-1.81-3.55zm8.93-1.67c-.65.99-1.46 1.56-2.3 1.65V27.7c.84.09 1.65.65 2.3 1.65.71 1.09 1.18 2.65 1.17 4.39.01 1.74-.46 3.3-1.17 4.39z" fill="#F95B57"/></svg>