<svg xmlns="http://www.w3.org/2000/svg" width="76" height="75" viewBox="0 0 76 75"><path d="M75.7 37.51c0 20.71-16.79 37.5-37.5 37.5S.7 58.22.7 37.51 17.49.01 38.2.01s37.5 16.79 37.5 37.5z" fill="#111114"/><path d="M47.66 29.75l2.14 2.15c.13.13.2.29.2.47 0 .17-.07.34-.2.47L36.12 46.53l.9.9 13.69-13.69c.38-.38.56-.88.56-1.37 0-.5-.18-1-.56-1.37l-5.21-5.21c-.38-.38-.88-.56-1.37-.56-.5 0-.99.18-1.37.56L29.07 39.48l.9.9L43.66 26.7c.13-.13.3-.2.47-.2.17 0 .34.07.47.2l2.15 2.15-12.98 12.98.9.9 12.99-12.98zM28.27 42.99c-.26-.26-.57-.47-.99-.48-.32-.01-.66.18-.83.43-.18.24-.25.52-.27.81l-.45 5.16v.17c-.01.46.17.9.48 1.21.31.31.75.48 1.21.48h.15l5.18-.45c.29-.02.57-.09.81-.27.25-.18.44-.51.43-.83-.01-.42-.21-.73-.48-.99l-5.24-5.24zm-.79 6.51h-.06c-.28-.02-.4-.14-.42-.42v-.06l.44-5.06 5.1 5.1-5.06.44z" fill="#F95B57"/></svg>