<svg xmlns="http://www.w3.org/2000/svg" width="29" height="27" viewBox="0 0 29 27"><path d="M27.02 9.1h-6.56c-.1-1.71-.59-3.25-1.36-4.45-.81-1.25-1.99-2.13-3.36-2.23V2.4h-.25-.01-6.44C8.88 1.51 8.1.84 7.16.83H5.41c-1.06.01-1.91.86-1.92 1.92v3.22H.73c-.35 0-.64.28-.64.63s.29.64.64.64h2.76v5.32H.73c-.35 0-.64.28-.64.64 0 .35.29.64.64.64h2.76v2.55c.01 1.05.86 1.91 1.92 1.91h1.75c.81 0 1.5-.51 1.78-1.22h6.8v-.02c1.37-.1 2.55-.98 3.36-2.24.77-1.18 1.26-2.73 1.36-4.44h6.56c.35 0 .64.29.64.64v10.95c0 .35-.29.64-.64.64H13.09c-1.06 0-1.91.85-1.91 1.91v2.39h1.27v-2.39c0-.35.29-.64.64-.64h13.93c1.06 0 1.91-.85 1.92-1.91V11.02c-.01-1.06-.86-1.92-1.92-1.92zM7.8 16.39c0 .34-.29.63-.64.63H5.41c-.35 0-.64-.29-.64-.63V2.75c0-.35.29-.64.64-.64h1.75c.35 0 .64.29.64.64v13.64zm1.3-.59V3.68H14.46V15.8h-1.81H9.1zm8.93-1.67c-.65.99-1.46 1.56-2.29 1.65V3.7c.83.09 1.64.65 2.29 1.65.71 1.09 1.18 2.65 1.17 4.39.01 1.74-.46 3.3-1.17 4.39z" fill="#F95B57"/></svg>