<svg xmlns="http://www.w3.org/2000/svg" width="76" height="75" viewBox="0 0 76 75"><path d="M75.7 37.51C75.7 58.22 58.91 75 38.2 75S.7 58.22.7 37.51 17.49.01 38.2.01s37.5 16.79 37.5 37.5z" fill="#111114"/><path d="M38.43 44.76v-1.57h-1.27v1.6c-1.43.29-2.56 1.4-2.87 2.82h-8.44v1.28h8.38c.23 1.82 1.78 3.23 3.67 3.23s3.44-1.41 3.67-3.23h8.58v-1.28h-8.64c-.33-1.48-1.55-2.63-3.08-2.85zm-.53 6.09c-1.34 0-2.43-1.09-2.43-2.43s1.09-2.42 2.43-2.43c1.34.01 2.42 1.09 2.43 2.43-.01 1.34-1.09 2.43-2.43 2.43zm10.34-23.97H27.76c-1.12 0-2.02.9-2.02 2.02v11.4c0 1.11.9 2.02 2.02 2.02h20.48c1.11 0 2.02-.91 2.02-2.02V28.9c0-1.12-.91-2.02-2.02-2.02zm.75 13.42c0 .4-.34.75-.75.75H27.76c-.41 0-.75-.35-.75-.75V28.9c0-.41.34-.75.75-.75h20.48c.41 0 .75.34.75.75v11.4z" fill="#F95B57"/></svg>