<svg xmlns="http://www.w3.org/2000/svg" width="76" height="75" viewBox="0 0 76 75"><path d="M75.76 37.51c0 20.71-16.79 37.5-37.5 37.5S.76 58.22.76 37.51 17.55.01 38.26.01s37.5 16.79 37.5 37.5z" fill="#111114"/><path d="M51.32 29.94h-4.87l-.52-1.61c-.2-.55-.71-.91-1.29-.93H33.62c-.58.02-1.09.38-1.28.93l-.53 1.61h-4.87c-.63 0-1.15.52-1.15 1.15V47.78c0 .63.52 1.15 1.15 1.15h24.38c.63 0 1.15-.52 1.15-1.15V31.09c0-.63-.52-1.15-1.15-1.15zM33.5 28.72c.01-.01.03-.04.06-.06.02-.02.06-.03.06-.03h11.01c.01 0 .05.01.08.03.03.02.05.05.05.05l.4 1.23H33.1l.4-1.22zm-6.48 18.99v-2.33h7.45l.1.09c.08.06.16.12.26.19.5.37 1.06.67 1.64.89l.06.02c.08.03.15.06.25.09l.08.03c.07.02.14.04.2.06l.13.04c.07.02.14.03.2.05l.14.03c.07.01.13.03.2.04.04.01.08.02.15.03l.08.01.11.02.1.01.07.01c.05.01.12.01.18.02l.12.01.06.01h.07l.11.01H39.01l.12.01.16-.01h.2l.1-.01h.07l.06-.01.12-.01c.07-.01.13-.01.19-.02l.06-.01.1-.01.19-.03.05-.01.11-.02c.06-.01.12-.03.2-.04l.16-.04.19-.05.11-.03.05-.01.15-.05.1-.03.06-.03c.06-.02.12-.04.22-.08.73-.28 1.41-.67 2.01-1.17h7.45v2.33H27.02zm0-16.54h24.22v2.34h-8.02c-.26-.18-.53-.34-.81-.47-.16-.08-.32-.16-.52-.24l-.51-.19c-.17-.05-.33-.09-.5-.13l-.09-.02c-.15-.04-.31-.07-.51-.1-.17-.03-.34-.05-.5-.06l-.13-.01c-.16-.01-.32-.02-.49-.02h-.06c-.17 0-.33.01-.51.02l-.1.01c-.17.01-.34.03-.55.06-.16.03-.32.06-.49.1l-.07.02c-.17.04-.33.08-.53.15-.16.05-.32.11-.51.19-.45.18-.89.41-1.3.69h-8.02v-2.34zm16.46 12.85c-.06.06-.12.12-.19.17l-.04.04c-.73.66-1.61 1.14-2.58 1.39-.09.03-.19.05-.3.07-.1.02-.19.04-.31.06-.09.01-.19.02-.3.04-.1.01-.2.01-.32.02-.1.01-.2.01-.31.01-.1 0-.21 0-.34-.01-.09-.01-.19-.01-.31-.03l-.3-.03c-.1-.02-.19-.04-.3-.06-.1-.02-.19-.04-.29-.07-.94-.24-1.83-.72-2.56-1.37l-.02-.02-.03-.02-.03-.03c-.06-.05-.11-.11-.19-.18-.07-.07-.13-.14-.19-.2-.54-.6-.95-1.28-1.23-2.04-.03-.09-.06-.17-.09-.28-.03-.09-.06-.18-.09-.3l-.07-.31c-.02-.09-.03-.18-.06-.31l-.03-.27v-.06c-.01-.09-.02-.17-.02-.25-.01-.11-.01-.21-.01-.32 0-.12 0-.23.01-.35 0-.05.01-.11.02-.22l.01-.12c.01-.06.01-.13.02-.19l.02-.13c.02-.07.03-.15.04-.21l.02-.08c.06-.27.13-.54.23-.82.04-.09.07-.17.1-.25l.02-.05c.04-.08.07-.16.13-.28.17-.33.36-.65.57-.95l.05-.06c.05-.06.09-.12.15-.18l.05-.07c.05-.06.1-.12.15-.17l.05-.06c.17-.18.35-.35.54-.51l.08-.07.16-.13c.04-.02.07-.05.1-.07.05-.04.1-.08.15-.11.1-.06.19-.12.28-.18.03-.02.07-.04.15-.09.07-.04.14-.08.21-.11.06-.03.11-.06.15-.08.11-.05.21-.1.31-.14l.17-.07.21-.08.05-.02c.05-.01.08-.02.12-.03.11-.04.22-.07.33-.1l.17-.04c.09-.02.18-.03.26-.05l.14-.03c.13-.01.25-.03.38-.04l.14-.01c.15-.01.28-.02.42-.02.14 0 .28.01.45.02l.11.01c.13.01.25.03.37.04l.06.01.09.02c.09.02.17.03.26.05l.17.04c.11.03.22.06.33.1.05.01.11.03.17.05.07.03.14.05.21.08.06.02.12.05.17.07.1.04.2.09.32.14l.15.08c.06.04.13.07.2.11.06.04.12.07.18.11.08.05.16.1.24.16.06.03.11.07.16.11l.09.07c.06.04.12.09.17.13l.07.05v.01c.2.17.39.35.56.54l.07.07c.04.05.08.1.13.15l.04.05c.06.07.11.13.19.24.22.31.42.63.6 1 .04.08.07.16.11.24l.02.05c.03.08.07.16.1.26.1.26.18.53.23.8l.02.08c.01.07.03.14.04.22l.02.14c.01.05.02.11.02.18.01.06.02.12.02.18.01.06.01.11.01.16.01.12.01.23.01.35 0 .1 0 .21-.01.32 0 .07 0 .14-.01.22l-.01.1-.03.24-.01.07c-.01.08-.03.17-.05.25l-.01.06c-.01.08-.03.17-.06.29-.03.09-.05.18-.09.3-.03.08-.06.17-.1.28-.27.74-.68 1.41-1.22 2.01-.06.06-.12.13-.21.22zm1.69-.1c.06-.09.12-.18.2-.31.06-.09.12-.18.17-.27l.03-.05c.05-.09.1-.18.14-.27l.03-.06c.05-.09.09-.18.14-.3l.02-.05c.04-.08.08-.17.11-.25l.04-.1c.03-.07.05-.15.08-.23l.02-.06.02-.06c.02-.08.05-.16.08-.26l.03-.1c.02-.09.04-.17.06-.25 0-.03.01-.07.02-.12.02-.07.03-.14.04-.2l.01-.05c0-.03.01-.07.02-.12.02-.09.03-.19.04-.29l.01-.09.03-.32v-.07c.01-.12.01-.25.01-.38 0-.15 0-.28-.01-.42l-.01-.1v-.05l-.03-.26c0-.05-.01-.1-.02-.14 0-.09-.02-.18-.04-.31l-.02-.1c-.02-.09-.03-.17-.05-.26l-.03-.14c-.03-.09-.05-.19-.09-.31l-.02-.07c-.08-.26-.17-.51-.28-.75 0-.03-.01-.04-.02-.06-.04-.1-.09-.21-.14-.31l-.05-.08c-.04-.09-.09-.18-.15-.28l-.04-.07c-.05-.1-.11-.19-.17-.28l-.03-.06c-.06-.08-.12-.16-.17-.24l-.06-.09-.03-.03-.02-.03c-.12-.16-.26-.33-.4-.49h6.6v9.43h-6.25c.05-.07.11-.15.18-.24zm-18.15-9.19h6.6c-.25.28-.48.58-.7.93-.07.1-.13.19-.18.3l-.04.06c-.05.09-.11.19-.16.29l-.03.06c-.06.11-.11.23-.17.37-.11.27-.2.52-.28.76l-.02.08-.09.31-.02.12c-.02.09-.04.18-.06.28l-.01.05-.01.08c-.02.09-.03.18-.05.32l-.01.09c-.01.1-.02.2-.03.32l-.01.09c0 .14-.01.27-.01.42 0 .13 0 .26.02.44 0 .11.01.22.02.33l.01.1c.01.09.03.18.04.28l.02.11c.01.08.03.17.05.27l.01.04.02.06.01.07c.01.06.03.13.05.19l.03.11c.02.08.05.17.09.3l.02.05c.02.09.05.17.09.25l.03.1c.03.08.07.17.12.27l.03.07c.03.08.07.16.13.28l.02.04c.05.09.09.18.14.26l.03.06c.06.09.11.18.16.26l.04.05c.05.09.11.18.19.29.06.08.1.14.16.22h-6.25v-9.43z" fill="#F95B57"/></svg>