<svg xmlns="http://www.w3.org/2000/svg" width="18" height="15" viewBox="0 0 18 15"><path d="M17.51 1.92c-.64.28-1.33.47-2.06.56.74-.44 1.31-1.15 1.58-1.98-.69.41-1.46.71-2.28.87C14.1.67 13.16.23 12.13.23c-1.98 0-3.59 1.61-3.59 3.59 0 .28.03.56.09.82-2.98-.15-5.62-1.58-7.4-3.75-.3.53-.48 1.15-.48 1.81 0 1.24.63 2.34 1.6 2.98-.59-.02-1.15-.18-1.63-.45v.05c0 1.74 1.24 3.19 2.88 3.52-.3.08-.62.13-.95.13-.23 0-.45-.03-.67-.07.45 1.43 1.78 2.46 3.35 2.49-1.23.97-2.78 1.54-4.46 1.54-.29 0-.57-.02-.85-.05 1.59 1.02 3.47 1.61 5.5 1.61 6.6 0 10.21-5.47 10.21-10.21 0-.16 0-.31-.01-.46.7-.51 1.31-1.14 1.79-1.86z" fill="#FFF"/></svg>